<mxfile host="app.diagrams.net" modified="2021-04-15T04:56:55.884Z" agent="5.0 (Windows NT 10.0; Win64; x64) AppleWebKit/537.36 (KHTML, like Gecko) Chrome/89.0.4389.128 Safari/537.36" etag="7Jewd8tLDrniEbokipn4" version="14.6.0" type="github">
  <diagram id="7sQ95olfqUFO54DWcpTe" name="Page-1">
    <mxGraphModel dx="2595" dy="1370" grid="1" gridSize="10" guides="1" tooltips="1" connect="1" arrows="1" fold="1" page="1" pageScale="1" pageWidth="1654" pageHeight="2336" math="0" shadow="0">
      <root>
        <mxCell id="0" />
        <mxCell id="1" parent="0" />
        <UserObject label="" lucidchartObjectId="ZoXsPL54gnEN" id="eYaGFQHEvG416IIvsmWr-77">
          <mxCell style="html=1;overflow=block;blockSpacing=1;whiteSpace=wrap;ellipse;fillColor=#000000;whiteSpace=wrap;fontSize=13;spacing=0;strokeColor=#5e5e5e;strokeOpacity=100;rounded=1;absoluteArcSize=1;arcSize=9;strokeWidth=2.3;" parent="1" vertex="1">
            <mxGeometry x="685" y="90" width="30" height="30" as="geometry" />
          </mxCell>
        </UserObject>
        <UserObject label="" lucidchartObjectId="Q6YspVmDRWl3" id="eYaGFQHEvG416IIvsmWr-78">
          <mxCell style="html=1;jettySize=18;whiteSpace=wrap;overflow=block;blockSpacing=1;fontSize=13;strokeColor=#5E5E5E;strokeWidth=1.5;rounded=1;arcSize=12;edgeStyle=orthogonalEdgeStyle;startArrow=none;;endArrow=block;endFill=1;;entryX=0.5;entryY=-0.019;entryPerimeter=0;" parent="1" target="eYaGFQHEvG416IIvsmWr-79" edge="1">
            <mxGeometry width="100" height="100" relative="1" as="geometry">
              <Array as="points" />
              <mxPoint x="700" y="120" as="sourcePoint" />
            </mxGeometry>
          </mxCell>
        </UserObject>
        <mxCell id="eYaGFQHEvG416IIvsmWr-79" value="&lt;div style=&quot;display: flex ; justify-content: center ; text-align: center ; align-items: baseline ; font-size: 0 ; line-height: 1.25 ; margin-top: -2px&quot;&gt;&lt;span&gt;&lt;span style=&quot;font-size: 16.7px ; color: #333333&quot;&gt;start to use this machine&lt;/span&gt;&lt;/span&gt;&lt;/div&gt;" style="rounded=1;arcSize=20;whiteSpace=wrap;overflow=block;blockSpacing=1;html=1;fontSize=13;spacing=0;strokeColor=#5E5E5E;strokeWidth=2.3;" parent="1" vertex="1">
          <mxGeometry x="640" y="209" width="120" height="60" as="geometry" />
        </mxCell>
        <UserObject label="" lucidchartObjectId="e8Ysz2f6yijw" id="eYaGFQHEvG416IIvsmWr-80">
          <mxCell style="html=1;jettySize=18;whiteSpace=wrap;overflow=block;blockSpacing=1;fontSize=13;strokeColor=#5E5E5E;strokeWidth=1.5;rounded=1;arcSize=12;edgeStyle=orthogonalEdgeStyle;startArrow=none;;endArrow=block;endFill=1;;exitX=0.5;exitY=1.019;exitPerimeter=0;entryX=0.5;entryY=-0.019;entryPerimeter=0;" parent="1" source="eYaGFQHEvG416IIvsmWr-79" edge="1">
            <mxGeometry width="100" height="100" relative="1" as="geometry">
              <Array as="points" />
              <mxPoint x="700" y="356.8599999999999" as="targetPoint" />
            </mxGeometry>
          </mxCell>
        </UserObject>
        <mxCell id="eYaGFQHEvG416IIvsmWr-81" value="&lt;font style=&quot;font-size: 13px&quot;&gt;&lt;b&gt;Press &quot;start&quot; button&lt;/b&gt;&lt;/font&gt;" style="text;html=1;resizable=0;labelBackgroundColor=#ffffff;align=center;verticalAlign=middle;fontColor=#333333;;fontSize=16.7;" parent="eYaGFQHEvG416IIvsmWr-80" vertex="1">
          <mxGeometry x="-0.101347755782773" relative="1" as="geometry">
            <mxPoint x="70" y="-149" as="offset" />
          </mxGeometry>
        </mxCell>
        <mxCell id="3pxynoa2fiVpkAcEUHBI-23" style="edgeStyle=orthogonalEdgeStyle;curved=1;rounded=0;orthogonalLoop=1;jettySize=auto;html=1;exitX=0.25;exitY=0;exitDx=0;exitDy=0;fontSize=13;" parent="1" target="3pxynoa2fiVpkAcEUHBI-24" edge="1">
          <mxGeometry relative="1" as="geometry">
            <mxPoint x="370" y="250" as="targetPoint" />
            <mxPoint x="670" y="358" as="sourcePoint" />
            <Array as="points">
              <mxPoint x="670" y="270" />
              <mxPoint x="70" y="270" />
            </Array>
          </mxGeometry>
        </mxCell>
        <mxCell id="eYaGFQHEvG416IIvsmWr-97" value="&lt;div style=&quot;display: flex; justify-content: center; text-align: center; align-items: baseline; font-size: 0; line-height: 1.25;margin-top: -2px;&quot;&gt;&lt;span&gt;&lt;span style=&quot;font-size:16.7px;color:#333333;&quot;&gt;Find the item&lt;/span&gt;&lt;/span&gt;&lt;/div&gt;" style="rounded=1;arcSize=20;whiteSpace=wrap;overflow=block;blockSpacing=1;html=1;fontSize=13;spacing=0;strokeColor=#5e5e5e;strokeOpacity=100;strokeWidth=2.3;" parent="1" vertex="1">
          <mxGeometry x="1440" y="375" width="120" height="60" as="geometry" />
        </mxCell>
        <UserObject label="" lucidchartObjectId="H4ZsfwrMtYRL" id="eYaGFQHEvG416IIvsmWr-98">
          <mxCell style="html=1;jettySize=18;whiteSpace=wrap;fontSize=13;strokeColor=#5E5E5E;strokeWidth=1.5;rounded=1;arcSize=12;edgeStyle=orthogonalEdgeStyle;startArrow=none;;endArrow=block;endFill=1;;exitX=1.009;exitY=0.5;exitPerimeter=0;entryX=0.5;entryY=-0.019;entryPerimeter=0;" parent="1" source="eYaGFQHEvG416IIvsmWr-79" target="eYaGFQHEvG416IIvsmWr-97" edge="1">
            <mxGeometry width="100" height="100" relative="1" as="geometry">
              <Array as="points" />
            </mxGeometry>
          </mxCell>
        </UserObject>
        <UserObject label="&lt;font style=&quot;font-size: 13px&quot;&gt;&lt;b&gt;entersPLUCode(pluCode)&lt;/b&gt;&lt;/font&gt;" lucidchartObjectId="8.ZsFUIeRXpb" id="eYaGFQHEvG416IIvsmWr-103">
          <mxCell style="html=1;overflow=block;blockSpacing=1;whiteSpace=wrap;;whiteSpace=wrap;fontSize=16.7;fontColor=#333333;spacing=3.8;strokeColor=none;fillOpacity=0;fillColor=#ffffff;strokeWidth=0;" parent="1" vertex="1">
            <mxGeometry x="890" y="200" width="126" height="28" as="geometry" />
          </mxCell>
        </UserObject>
        <UserObject label="" lucidchartObjectId="1b9s54oGPZgB" id="eYaGFQHEvG416IIvsmWr-111">
          <mxCell style="html=1;overflow=block;blockSpacing=1;whiteSpace=wrap;shape=mxgraph.sysml.package2;xSize=90;overflow=fill;whiteSpace=wrap;fontSize=13;spacing=0;strokeColor=#5e5e5e;strokeOpacity=100;rounded=1;absoluteArcSize=1;arcSize=9;strokeWidth=2.3;" parent="1" vertex="1">
            <mxGeometry x="240" y="300" width="1120" height="500" as="geometry" />
          </mxCell>
        </UserObject>
        <mxCell id="eYaGFQHEvG416IIvsmWr-143" value="Bag" style="text;html=1;strokeColor=none;fillColor=none;align=center;verticalAlign=middle;whiteSpace=wrap;rounded=0;" parent="eYaGFQHEvG416IIvsmWr-111" vertex="1">
          <mxGeometry x="22.974358974358974" width="45.94871794871795" height="31.645569620253166" as="geometry" />
        </mxCell>
        <mxCell id="3pxynoa2fiVpkAcEUHBI-12" value="&lt;div style=&quot;display: flex; justify-content: center; text-align: center; align-items: baseline; font-size: 0; line-height: 1.25;margin-top: -2px;&quot;&gt;&lt;span&gt;&lt;span style=&quot;font-size:16.7px;color:#333333;&quot;&gt;Add to customers&#39; own bag&lt;/span&gt;&lt;/span&gt;&lt;/div&gt;" style="rounded=1;arcSize=20;whiteSpace=wrap;overflow=block;blockSpacing=1;html=1;fontSize=13;spacing=0;strokeColor=#5E5E5E;strokeWidth=2.3;" parent="eYaGFQHEvG416IIvsmWr-111" vertex="1">
          <mxGeometry x="620.0028205128206" y="244.9959493670886" width="137.84615384615387" height="118.67088607594937" as="geometry" />
        </mxCell>
        <mxCell id="3pxynoa2fiVpkAcEUHBI-77" style="edgeStyle=orthogonalEdgeStyle;curved=1;rounded=0;orthogonalLoop=1;jettySize=auto;html=1;exitX=1;exitY=0.25;exitDx=0;exitDy=0;entryX=0.833;entryY=0.014;entryDx=0;entryDy=0;fontSize=13;entryPerimeter=0;" parent="eYaGFQHEvG416IIvsmWr-111" source="3pxynoa2fiVpkAcEUHBI-13" target="3pxynoa2fiVpkAcEUHBI-79" edge="1">
          <mxGeometry relative="1" as="geometry">
            <Array as="points">
              <mxPoint x="1097" y="341" />
              <mxPoint x="1097" y="20" />
              <mxPoint x="500" y="20" />
            </Array>
          </mxGeometry>
        </mxCell>
        <mxCell id="3pxynoa2fiVpkAcEUHBI-78" value="&lt;b&gt;press &quot;Return to adding items&quot;&lt;/b&gt;&lt;br&gt;&lt;div style=&quot;text-align: left&quot;&gt;&lt;b&gt;returnToAddingItems()&lt;/b&gt;&lt;/div&gt;" style="edgeLabel;html=1;align=center;verticalAlign=middle;resizable=0;points=[];fontSize=13;" parent="3pxynoa2fiVpkAcEUHBI-77" vertex="1" connectable="0">
          <mxGeometry x="0.0232" y="8" relative="1" as="geometry">
            <mxPoint x="20" y="-8" as="offset" />
          </mxGeometry>
        </mxCell>
        <mxCell id="3pxynoa2fiVpkAcEUHBI-13" value="&lt;div style=&quot;display: flex; justify-content: center; text-align: center; align-items: baseline; font-size: 0; line-height: 1.25;margin-top: -2px;&quot;&gt;&lt;span&gt;&lt;span style=&quot;font-size:16.7px;color:#333333;&quot;&gt;Add to plastic bag&lt;/span&gt;&lt;/span&gt;&lt;/div&gt;" style="rounded=1;arcSize=20;whiteSpace=wrap;overflow=block;blockSpacing=1;html=1;fontSize=13;spacing=0;strokeColor=#5E5E5E;strokeWidth=2.3;" parent="eYaGFQHEvG416IIvsmWr-111" vertex="1">
          <mxGeometry x="960.0033333333333" y="359.9988823711022" width="137.84615384615387" height="94.93670886075951" as="geometry" />
        </mxCell>
        <mxCell id="3pxynoa2fiVpkAcEUHBI-16" value="&lt;div style=&quot;display: flex; justify-content: center; text-align: center; align-items: baseline; font-size: 0; line-height: 1.25;margin-top: -2px;&quot;&gt;&lt;span&gt;&lt;span style=&quot;font-size:16.7px;color:#333333;&quot;&gt;Not add to bag&lt;/span&gt;&lt;/span&gt;&lt;/div&gt;" style="rounded=1;arcSize=20;whiteSpace=wrap;overflow=block;blockSpacing=1;html=1;fontSize=13;spacing=0;strokeColor=#5e5e5e;strokeOpacity=100;strokeWidth=2.3;" parent="eYaGFQHEvG416IIvsmWr-111" vertex="1">
          <mxGeometry x="29.9974358974359" y="180.00012658227848" width="137.84615384615387" height="94.93670886075951" as="geometry" />
        </mxCell>
        <mxCell id="3pxynoa2fiVpkAcEUHBI-58" value="" style="rounded=1;whiteSpace=wrap;html=1;fontSize=13;strokeWidth=2;align=left;" parent="eYaGFQHEvG416IIvsmWr-111" vertex="1">
          <mxGeometry x="389.9979487179487" y="274.93243902439025" width="137.84615384615387" height="73.17073170731707" as="geometry" />
        </mxCell>
        <UserObject label="look up item" lucidchartObjectId="DKZsDweC3pXJ" id="3pxynoa2fiVpkAcEUHBI-19">
          <mxCell style="html=1;overflow=block;blockSpacing=1;whiteSpace=wrap;;whiteSpace=wrap;fontSize=13;align=left;spacing=3.8;verticalAlign=top;strokeColor=none;fillOpacity=0;fillColor=#ffffff;strokeWidth=0;" parent="eYaGFQHEvG416IIvsmWr-111" vertex="1">
            <mxGeometry x="407.228717948718" y="299.3226829268293" width="103.38461538461539" height="24.390243902439025" as="geometry" />
          </mxCell>
        </UserObject>
        <mxCell id="3pxynoa2fiVpkAcEUHBI-60" value="" style="endArrow=classic;html=1;fontSize=13;entryX=0.25;entryY=0;entryDx=0;entryDy=0;" parent="eYaGFQHEvG416IIvsmWr-111" target="3pxynoa2fiVpkAcEUHBI-58" edge="1">
          <mxGeometry width="50" height="50" relative="1" as="geometry">
            <mxPoint x="470.974358974359" y="121.95121951219512" as="sourcePoint" />
            <mxPoint x="448.00000000000006" y="158.53658536585365" as="targetPoint" />
          </mxGeometry>
        </mxCell>
        <mxCell id="3pxynoa2fiVpkAcEUHBI-61" value="&lt;b&gt;lookupProduct(barcode)&lt;/b&gt;&lt;br&gt;&lt;b&gt;lookupProduct(code)&lt;/b&gt;" style="edgeLabel;html=1;align=left;verticalAlign=middle;resizable=0;points=[];fontSize=13;" parent="3pxynoa2fiVpkAcEUHBI-60" vertex="1" connectable="0">
          <mxGeometry x="-0.3419" y="-1" relative="1" as="geometry">
            <mxPoint x="-16" y="56" as="offset" />
          </mxGeometry>
        </mxCell>
        <mxCell id="3pxynoa2fiVpkAcEUHBI-64" value="&lt;br&gt;&lt;div style=&quot;text-align: left&quot;&gt;&lt;br&gt;&lt;/div&gt;" style="edgeStyle=orthogonalEdgeStyle;curved=1;rounded=0;orthogonalLoop=1;jettySize=auto;html=1;exitX=0.5;exitY=1;exitDx=0;exitDy=0;fontSize=13;" parent="eYaGFQHEvG416IIvsmWr-111" source="3pxynoa2fiVpkAcEUHBI-63" target="3pxynoa2fiVpkAcEUHBI-13" edge="1">
          <mxGeometry relative="1" as="geometry">
            <Array as="points">
              <mxPoint x="1040" y="284" />
              <mxPoint x="1043" y="284" />
            </Array>
          </mxGeometry>
        </mxCell>
        <mxCell id="3pxynoa2fiVpkAcEUHBI-65" value="&lt;div style=&quot;text-align: left&quot;&gt;&lt;span style=&quot;background-color: rgb(248 , 249 , 250) ; color: rgb(51 , 51 , 51) ; font-family: &amp;#34;helvetica&amp;#34; ; font-weight: 700&quot;&gt;checkOwnBagPlaced(customersBag)&lt;/span&gt;&lt;/div&gt;&lt;div style=&quot;text-align: left&quot;&gt;&lt;span style=&quot;background-color: rgb(248 , 249 , 250) ; color: rgb(51 , 51 , 51) ; font-family: &amp;#34;helvetica&amp;#34; ; font-weight: 700&quot;&gt;[not use own bag]/ add 0.5 per bag&lt;/span&gt;&lt;/div&gt;" style="edgeLabel;html=1;align=center;verticalAlign=middle;resizable=0;points=[];fontSize=13;" parent="3pxynoa2fiVpkAcEUHBI-64" vertex="1" connectable="0">
          <mxGeometry x="0.1427" y="2" relative="1" as="geometry">
            <mxPoint x="-71" y="10" as="offset" />
          </mxGeometry>
        </mxCell>
        <mxCell id="3pxynoa2fiVpkAcEUHBI-63" value="enters number of plastic bags used" style="rounded=1;whiteSpace=wrap;html=1;fontSize=13;strokeWidth=2;align=left;" parent="eYaGFQHEvG416IIvsmWr-111" vertex="1">
          <mxGeometry x="970.6666666666667" y="134.14634146341464" width="137.84615384615387" height="73.17073170731707" as="geometry" />
        </mxCell>
        <mxCell id="3pxynoa2fiVpkAcEUHBI-79" value="&lt;div style=&quot;display: flex; justify-content: center; text-align: center; align-items: baseline; font-size: 0; line-height: 1.25;margin-top: -2px;&quot;&gt;&lt;span&gt;&lt;span style=&quot;font-size:16.7px;color:#333333;&quot;&gt;Scan barcode of item&lt;/span&gt;&lt;/span&gt;&lt;/div&gt;" style="rounded=1;arcSize=20;whiteSpace=wrap;overflow=block;blockSpacing=1;html=1;fontSize=13;spacing=0;strokeColor=#5e5e5e;strokeOpacity=100;strokeWidth=2.3;" parent="eYaGFQHEvG416IIvsmWr-111" vertex="1">
          <mxGeometry x="384.8205128205128" y="46.34146341463415" width="137.84615384615387" height="73.17073170731707" as="geometry" />
        </mxCell>
        <mxCell id="3pxynoa2fiVpkAcEUHBI-75" style="edgeStyle=orthogonalEdgeStyle;curved=1;rounded=0;orthogonalLoop=1;jettySize=auto;html=1;exitX=1;exitY=0.75;exitDx=0;exitDy=0;fontSize=13;" parent="eYaGFQHEvG416IIvsmWr-111" source="3pxynoa2fiVpkAcEUHBI-12" target="3pxynoa2fiVpkAcEUHBI-79" edge="1">
          <mxGeometry relative="1" as="geometry">
            <mxPoint x="520" y="90" as="targetPoint" />
            <Array as="points">
              <mxPoint x="758" y="330" />
              <mxPoint x="860" y="330" />
              <mxPoint x="860" y="100" />
            </Array>
          </mxGeometry>
        </mxCell>
        <mxCell id="3pxynoa2fiVpkAcEUHBI-76" value="&lt;b&gt;press &quot;Return to adding items&quot;&lt;/b&gt;&lt;br&gt;&lt;div style=&quot;text-align: left&quot;&gt;&lt;b&gt;returnToAddingItems()&lt;/b&gt;&lt;/div&gt;" style="edgeLabel;html=1;align=center;verticalAlign=middle;resizable=0;points=[];fontSize=13;" parent="3pxynoa2fiVpkAcEUHBI-75" vertex="1" connectable="0">
          <mxGeometry x="-0.4792" y="23" relative="1" as="geometry">
            <mxPoint x="33" y="-34" as="offset" />
          </mxGeometry>
        </mxCell>
        <UserObject label="" lucidchartObjectId="InZsWjq110g_" id="3pxynoa2fiVpkAcEUHBI-17">
          <mxCell style="html=1;jettySize=18;whiteSpace=wrap;fontSize=13;strokeColor=#5E5E5E;strokeWidth=1.5;rounded=1;arcSize=12;edgeStyle=orthogonalEdgeStyle;curved=1;startArrow=none;;endArrow=block;endFill=1;;entryX=0.5;entryY=-0.019;entryPerimeter=0;exitX=0;exitY=0.146;exitDx=0;exitDy=0;exitPerimeter=0;" parent="eYaGFQHEvG416IIvsmWr-111" source="3pxynoa2fiVpkAcEUHBI-79" target="3pxynoa2fiVpkAcEUHBI-16" edge="1">
            <mxGeometry width="100" height="100" relative="1" as="geometry">
              <Array as="points" />
              <mxPoint x="380" y="88" as="sourcePoint" />
            </mxGeometry>
          </mxCell>
        </UserObject>
        <mxCell id="3pxynoa2fiVpkAcEUHBI-18" value="shouldnotBeBagged()[ShouldbeBagged = false]" style="text;html=1;resizable=0;labelBackgroundColor=#ffffff;align=center;verticalAlign=middle;fontStyle=1;fontColor=#333333;;fontSize=13.3;" parent="3pxynoa2fiVpkAcEUHBI-17" vertex="1">
          <mxGeometry x="-0.3368302571258107" relative="1" as="geometry">
            <mxPoint x="-90" y="-11" as="offset" />
          </mxGeometry>
        </mxCell>
        <mxCell id="3pxynoa2fiVpkAcEUHBI-70" style="edgeStyle=orthogonalEdgeStyle;curved=1;rounded=0;orthogonalLoop=1;jettySize=auto;html=1;fontSize=13;" parent="eYaGFQHEvG416IIvsmWr-111" edge="1">
          <mxGeometry relative="1" as="geometry">
            <mxPoint x="167.84" y="201" as="sourcePoint" />
            <mxPoint x="407.83857142857147" y="120.00219512195133" as="targetPoint" />
            <Array as="points">
              <mxPoint x="167.81" y="200.49" />
              <mxPoint x="407.81" y="200.49" />
            </Array>
          </mxGeometry>
        </mxCell>
        <mxCell id="3pxynoa2fiVpkAcEUHBI-71" value="&lt;b&gt;press &quot;Return to adding items&quot;&lt;/b&gt;&lt;br&gt;&lt;div style=&quot;text-align: left&quot;&gt;&lt;b&gt;returnToAddingItems()&lt;/b&gt;&lt;/div&gt;" style="edgeLabel;html=1;align=center;verticalAlign=middle;resizable=0;points=[];fontSize=13;" parent="3pxynoa2fiVpkAcEUHBI-70" vertex="1" connectable="0">
          <mxGeometry x="-0.3949" y="22" relative="1" as="geometry">
            <mxPoint x="20" y="39" as="offset" />
          </mxGeometry>
        </mxCell>
        <UserObject label="" lucidchartObjectId="jc9souZzeh4k" id="eYaGFQHEvG416IIvsmWr-113">
          <mxCell style="html=1;overflow=block;blockSpacing=1;whiteSpace=wrap;shape=mxgraph.sysml.package2;xSize=90;overflow=fill;whiteSpace=wrap;fontSize=13;spacing=0;strokeColor=#5e5e5e;strokeOpacity=100;rounded=1;absoluteArcSize=1;arcSize=9;strokeWidth=2.3;" parent="1" vertex="1">
            <mxGeometry x="1380" y="260" width="260" height="490" as="geometry" />
          </mxCell>
        </UserObject>
        <mxCell id="eYaGFQHEvG416IIvsmWr-153" value="Payment" style="shape=umlFrame;whiteSpace=wrap;html=1;strokeWidth=2;" parent="1" vertex="1">
          <mxGeometry x="240" y="842.29" width="1040" height="1100" as="geometry" />
        </mxCell>
        <mxCell id="3pxynoa2fiVpkAcEUHBI-56" style="edgeStyle=orthogonalEdgeStyle;curved=1;rounded=0;orthogonalLoop=1;jettySize=auto;html=1;exitX=0.5;exitY=1;exitDx=0;exitDy=0;entryX=0.5;entryY=0;entryDx=0;entryDy=0;fontSize=13;" parent="1" source="eYaGFQHEvG416IIvsmWr-154" target="3pxynoa2fiVpkAcEUHBI-55" edge="1">
          <mxGeometry relative="1" as="geometry" />
        </mxCell>
        <mxCell id="3pxynoa2fiVpkAcEUHBI-57" value="Press &quot;Pay by Cash&quot;" style="edgeLabel;html=1;align=center;verticalAlign=middle;resizable=0;points=[];fontSize=13;" parent="3pxynoa2fiVpkAcEUHBI-56" vertex="1" connectable="0">
          <mxGeometry x="-0.3643" y="-3" relative="1" as="geometry">
            <mxPoint x="15" y="10" as="offset" />
          </mxGeometry>
        </mxCell>
        <mxCell id="eYaGFQHEvG416IIvsmWr-154" value="&lt;div style=&quot;display: flex ; justify-content: center ; text-align: center ; align-items: baseline ; font-size: 0 ; line-height: 1.25 ; margin-top: -2px&quot;&gt;&lt;span&gt;ssss&lt;/span&gt;&lt;/div&gt;" style="rounded=1;arcSize=20;whiteSpace=wrap;overflow=block;blockSpacing=1;html=1;fontSize=13;spacing=0;strokeColor=#5e5e5e;strokeOpacity=100;strokeWidth=2.3;" parent="1" vertex="1">
          <mxGeometry x="390" y="904.79" width="120" height="60" as="geometry" />
        </mxCell>
        <mxCell id="3pxynoa2fiVpkAcEUHBI-42" style="edgeStyle=orthogonalEdgeStyle;curved=1;rounded=0;orthogonalLoop=1;jettySize=auto;html=1;exitX=0.75;exitY=0;exitDx=0;exitDy=0;entryX=0;entryY=0.5;entryDx=0;entryDy=0;fontSize=13;" parent="1" source="eYaGFQHEvG416IIvsmWr-156" target="3pxynoa2fiVpkAcEUHBI-40" edge="1">
          <mxGeometry relative="1" as="geometry" />
        </mxCell>
        <mxCell id="3pxynoa2fiVpkAcEUHBI-43" value="&lt;b&gt;press &quot;Pay by Card&quot;&lt;/b&gt;&lt;br&gt;&lt;b&gt;calculatePoints(balance, points)&lt;/b&gt;&lt;br&gt;&lt;b&gt;membershipCardReader(data )&lt;/b&gt;" style="edgeLabel;html=1;align=left;verticalAlign=middle;resizable=0;points=[];fontSize=13;" parent="3pxynoa2fiVpkAcEUHBI-42" vertex="1" connectable="0">
          <mxGeometry x="0.0986" y="2" relative="1" as="geometry">
            <mxPoint x="-1" y="57" as="offset" />
          </mxGeometry>
        </mxCell>
        <mxCell id="3pxynoa2fiVpkAcEUHBI-45" style="edgeStyle=orthogonalEdgeStyle;curved=1;rounded=0;orthogonalLoop=1;jettySize=auto;html=1;exitX=1;exitY=0.5;exitDx=0;exitDy=0;entryX=0;entryY=0.5;entryDx=0;entryDy=0;fontSize=13;" parent="1" source="eYaGFQHEvG416IIvsmWr-156" target="3pxynoa2fiVpkAcEUHBI-44" edge="1">
          <mxGeometry relative="1" as="geometry" />
        </mxCell>
        <mxCell id="3pxynoa2fiVpkAcEUHBI-50" style="edgeStyle=orthogonalEdgeStyle;curved=1;rounded=0;orthogonalLoop=1;jettySize=auto;html=1;exitX=1;exitY=1;exitDx=0;exitDy=0;entryX=1;entryY=0.5;entryDx=0;entryDy=0;fontSize=13;" parent="1" source="eYaGFQHEvG416IIvsmWr-156" target="eYaGFQHEvG416IIvsmWr-172" edge="1">
          <mxGeometry relative="1" as="geometry">
            <Array as="points">
              <mxPoint x="1220" y="1069.79" />
              <mxPoint x="1220" y="1699.79" />
            </Array>
          </mxGeometry>
        </mxCell>
        <mxCell id="3pxynoa2fiVpkAcEUHBI-51" value="&lt;span style=&quot;color: rgb(51 , 51 , 51) ; font-weight: 700&quot;&gt;press&amp;nbsp;&quot;Print Receipt&quot;&lt;/span&gt;&lt;br style=&quot;color: rgb(51 , 51 , 51) ; font-weight: 700&quot;&gt;&lt;span style=&quot;color: rgb(51 , 51 , 51) ; font-weight: 700&quot;&gt;printRecipt()/ return Receipt&lt;/span&gt;&lt;br style=&quot;color: rgb(51 , 51 , 51) ; font-weight: 700&quot;&gt;&lt;span style=&quot;color: rgb(51 , 51 , 51) ; font-weight: 700&quot;&gt;printer(reciptContent)/&lt;/span&gt;&lt;span style=&quot;color: rgb(51 , 51 , 51) ; font-weight: 700&quot;&gt;return Receipt&lt;/span&gt;&lt;br style=&quot;color: rgb(51 , 51 , 51) ; font-weight: 700&quot;&gt;&lt;span style=&quot;color: rgb(51 , 51 , 51) ; font-weight: 700&quot;&gt;generateReceiptContent()/return content&lt;/span&gt;" style="edgeLabel;html=1;align=left;verticalAlign=middle;resizable=0;points=[];fontSize=13;" parent="3pxynoa2fiVpkAcEUHBI-50" vertex="1" connectable="0">
          <mxGeometry x="-0.3951" y="-48" relative="1" as="geometry">
            <mxPoint x="-212" y="-5" as="offset" />
          </mxGeometry>
        </mxCell>
        <mxCell id="eYaGFQHEvG416IIvsmWr-156" value="&lt;div style=&quot;display: flex; justify-content: center; text-align: center; align-items: baseline; font-size: 0; line-height: 1.25;margin-top: -2px;&quot;&gt;&lt;span&gt;&lt;span style=&quot;font-size:16.7px;color:#333333;&quot;&gt;pay by card&lt;/span&gt;&lt;/span&gt;&lt;/div&gt;" style="rounded=1;arcSize=20;whiteSpace=wrap;overflow=block;blockSpacing=1;html=1;fontSize=13;spacing=0;strokeColor=#5e5e5e;strokeOpacity=100;strokeWidth=2.3;" parent="1" vertex="1">
          <mxGeometry x="870" y="1009.79" width="120" height="60" as="geometry" />
        </mxCell>
        <UserObject label="" lucidchartObjectId="Yp9sLj~5Ky54" id="eYaGFQHEvG416IIvsmWr-157">
          <mxCell style="html=1;jettySize=18;whiteSpace=wrap;fontSize=13;strokeColor=#5E5E5E;strokeWidth=1.5;rounded=1;arcSize=12;edgeStyle=orthogonalEdgeStyle;curved=1;startArrow=none;;endArrow=block;endFill=1;;exitX=0.25;exitY=1;entryX=0.5;entryY=-0.019;entryPerimeter=0;exitDx=0;exitDy=0;" parent="1" source="3pxynoa2fiVpkAcEUHBI-55" target="eYaGFQHEvG416IIvsmWr-159" edge="1">
            <mxGeometry width="100" height="100" relative="1" as="geometry">
              <Array as="points">
                <mxPoint x="300" y="1149.79" />
                <mxPoint x="390" y="1149.79" />
              </Array>
            </mxGeometry>
          </mxCell>
        </UserObject>
        <mxCell id="eYaGFQHEvG416IIvsmWr-158" value="validCoinDetected(validator, value)/ update balance" style="text;html=1;resizable=0;labelBackgroundColor=#ffffff;align=center;verticalAlign=middle;fontStyle=1;fontColor=#333333;;fontSize=13.3;" parent="eYaGFQHEvG416IIvsmWr-157" vertex="1">
          <mxGeometry x="0.5703354656171602" relative="1" as="geometry">
            <mxPoint x="80" as="offset" />
          </mxGeometry>
        </mxCell>
        <mxCell id="eYaGFQHEvG416IIvsmWr-159" value="&lt;div style=&quot;display: flex; justify-content: center; text-align: center; align-items: baseline; font-size: 0; line-height: 1.25;margin-top: -2px;&quot;&gt;&lt;span&gt;&lt;span style=&quot;font-size:16.7px;color:#333333;&quot;&gt;coin&lt;/span&gt;&lt;/span&gt;&lt;/div&gt;" style="rounded=1;arcSize=20;whiteSpace=wrap;overflow=block;blockSpacing=1;html=1;fontSize=13;spacing=0;strokeColor=#5e5e5e;strokeOpacity=100;strokeWidth=2.3;" parent="1" vertex="1">
          <mxGeometry x="330" y="1219.79" width="120" height="60" as="geometry" />
        </mxCell>
        <UserObject label="" lucidchartObjectId="Aq9sfQ_U-uX9" id="eYaGFQHEvG416IIvsmWr-160">
          <mxCell style="html=1;jettySize=18;whiteSpace=wrap;fontSize=13;strokeColor=#5E5E5E;strokeWidth=1.5;rounded=1;arcSize=12;edgeStyle=orthogonalEdgeStyle;curved=1;startArrow=none;;endArrow=block;endFill=1;;exitX=1;exitY=0.5;entryX=-0.009;entryY=0.5;entryPerimeter=0;exitDx=0;exitDy=0;" parent="1" source="3pxynoa2fiVpkAcEUHBI-55" target="eYaGFQHEvG416IIvsmWr-162" edge="1">
            <mxGeometry width="100" height="100" relative="1" as="geometry">
              <Array as="points">
                <mxPoint x="390" y="1099.79" />
                <mxPoint x="730" y="1099.79" />
                <mxPoint x="730" y="1204.79" />
              </Array>
            </mxGeometry>
          </mxCell>
        </UserObject>
        <mxCell id="eYaGFQHEvG416IIvsmWr-162" value="&lt;div style=&quot;display: flex; justify-content: center; text-align: center; align-items: baseline; font-size: 0; line-height: 1.25;margin-top: -2px;&quot;&gt;&lt;span&gt;&lt;span style=&quot;font-size:16.7px;color:#333333;&quot;&gt;pay by banknote&lt;/span&gt;&lt;/span&gt;&lt;/div&gt;" style="rounded=1;arcSize=20;whiteSpace=wrap;overflow=block;blockSpacing=1;html=1;fontSize=13;spacing=0;strokeColor=#5E5E5E;strokeWidth=2.3;" parent="1" vertex="1">
          <mxGeometry x="795" y="1174.79" width="120" height="60" as="geometry" />
        </mxCell>
        <UserObject label="" lucidchartObjectId="XA9s~.fAhnfX" id="eYaGFQHEvG416IIvsmWr-163">
          <mxCell style="html=1;jettySize=18;whiteSpace=wrap;fontSize=13;strokeColor=#5E5E5E;strokeWidth=1.5;rounded=1;arcSize=12;edgeStyle=orthogonalEdgeStyle;curved=1;startArrow=none;;endArrow=block;endFill=1;;entryX=-0.009;entryY=0.5;entryPerimeter=0;" parent="1" target="eYaGFQHEvG416IIvsmWr-165" edge="1">
            <mxGeometry width="100" height="100" relative="1" as="geometry">
              <Array as="points">
                <mxPoint x="480" y="1268.79" />
                <mxPoint x="480" y="1519.79" />
              </Array>
              <mxPoint x="451" y="1268.79" as="sourcePoint" />
            </mxGeometry>
          </mxCell>
        </UserObject>
        <mxCell id="eYaGFQHEvG416IIvsmWr-164" value="coinAdded(tray)/ coin ++&lt;br&gt;&lt;div style=&quot;&quot;&gt;dispenseChange()[coinCount &amp;gt; 0]&lt;/div&gt;" style="text;html=1;resizable=0;labelBackgroundColor=#ffffff;align=left;verticalAlign=middle;fontStyle=1;fontColor=#333333;;fontSize=13.3;" parent="eYaGFQHEvG416IIvsmWr-163" vertex="1">
          <mxGeometry x="-0.188627819260491" relative="1" as="geometry">
            <mxPoint as="offset" />
          </mxGeometry>
        </mxCell>
        <mxCell id="eYaGFQHEvG416IIvsmWr-165" value="&lt;div style=&quot;display: flex; justify-content: center; text-align: center; align-items: baseline; font-size: 0; line-height: 1.25;margin-top: -2px;&quot;&gt;&lt;span&gt;&lt;span style=&quot;font-size:16.7px;color:#333333;&quot;&gt;recieve coin changes&lt;/span&gt;&lt;/span&gt;&lt;/div&gt;" style="rounded=1;arcSize=20;whiteSpace=wrap;overflow=block;blockSpacing=1;html=1;fontSize=13;spacing=0;strokeColor=#5E5E5E;strokeWidth=2.3;" parent="1" vertex="1">
          <mxGeometry x="525" y="1489.79" width="120" height="60" as="geometry" />
        </mxCell>
        <UserObject label="" lucidchartObjectId="JB9si0dp77Uk" id="eYaGFQHEvG416IIvsmWr-166">
          <mxCell style="html=1;jettySize=18;whiteSpace=wrap;fontSize=13;strokeColor=#5E5E5E;strokeWidth=1.5;rounded=1;arcSize=12;edgeStyle=orthogonalEdgeStyle;startArrow=none;;endArrow=block;endFill=1;;exitX=0.679;exitY=1.019;exitPerimeter=0;entryX=0.5;entryY=-0.015;entryPerimeter=0;" parent="1" source="eYaGFQHEvG416IIvsmWr-162" target="eYaGFQHEvG416IIvsmWr-168" edge="1">
            <mxGeometry width="100" height="100" relative="1" as="geometry">
              <Array as="points" />
            </mxGeometry>
          </mxCell>
        </UserObject>
        <mxCell id="eYaGFQHEvG416IIvsmWr-167" value="dispenseChange()[banknoteCount &amp;gt; 0]" style="text;html=1;resizable=0;labelBackgroundColor=#ffffff;align=left;verticalAlign=middle;fontStyle=1;fontColor=#333333;;fontSize=13.3;" parent="eYaGFQHEvG416IIvsmWr-166" vertex="1">
          <mxGeometry x="-0.10253489213737277" relative="1" as="geometry">
            <mxPoint y="-9" as="offset" />
          </mxGeometry>
        </mxCell>
        <mxCell id="eYaGFQHEvG416IIvsmWr-168" value="&lt;div style=&quot;display: flex; justify-content: center; text-align: center; align-items: baseline; font-size: 0; line-height: 1.25;margin-top: -2px;&quot;&gt;&lt;span&gt;&lt;span style=&quot;font-size:16.7px;color:#333333;&quot;&gt;recieve banknote changes&lt;/span&gt;&lt;/span&gt;&lt;/div&gt;" style="rounded=1;arcSize=20;whiteSpace=wrap;overflow=block;blockSpacing=1;html=1;fontSize=13;spacing=0;strokeColor=#5E5E5E;strokeWidth=2.3;" parent="1" vertex="1">
          <mxGeometry x="816" y="1354.79" width="120" height="75" as="geometry" />
        </mxCell>
        <mxCell id="3pxynoa2fiVpkAcEUHBI-37" style="edgeStyle=orthogonalEdgeStyle;curved=1;rounded=0;orthogonalLoop=1;jettySize=auto;html=1;exitX=0;exitY=0.75;exitDx=0;exitDy=0;entryX=0.5;entryY=1;entryDx=0;entryDy=0;fontSize=13;" parent="1" source="eYaGFQHEvG416IIvsmWr-172" target="eYaGFQHEvG416IIvsmWr-172" edge="1">
          <mxGeometry relative="1" as="geometry">
            <Array as="points">
              <mxPoint x="840" y="1714.79" />
              <mxPoint x="840" y="1789.79" />
              <mxPoint x="945" y="1789.79" />
            </Array>
          </mxGeometry>
        </mxCell>
        <mxCell id="3pxynoa2fiVpkAcEUHBI-38" value="&lt;b&gt;newPaperAmount()[newAmount &amp;lt;= 2000]/ print&amp;nbsp;&quot;Paper low. Please replace the paper roll.&quot;&lt;/b&gt;&lt;br&gt;&lt;b&gt;newInkAmount()[newAmount &amp;lt;= 20000]/ print&amp;nbsp;&quot;Ink low. Please replace the ink cartridge.&quot;&lt;br&gt;&lt;/b&gt;" style="edgeLabel;html=1;align=left;verticalAlign=middle;resizable=0;points=[];fontSize=13;" parent="3pxynoa2fiVpkAcEUHBI-37" vertex="1" connectable="0">
          <mxGeometry x="-0.0308" y="7" relative="1" as="geometry">
            <mxPoint x="-148" y="17" as="offset" />
          </mxGeometry>
        </mxCell>
        <mxCell id="eYaGFQHEvG416IIvsmWr-172" value="&lt;div style=&quot;display: flex; justify-content: center; text-align: center; align-items: baseline; font-size: 0; line-height: 1.25;margin-top: -2px;&quot;&gt;&lt;span&gt;&lt;span style=&quot;font-size:16.7px;color:#333333;&quot;&gt;get teceipt &lt;/span&gt;&lt;/span&gt;&lt;/div&gt;" style="rounded=1;arcSize=20;whiteSpace=wrap;overflow=block;blockSpacing=1;html=1;fontSize=13;spacing=0;strokeColor=#5E5E5E;strokeWidth=2.3;" parent="1" vertex="1">
          <mxGeometry x="885" y="1669.79" width="120" height="60" as="geometry" />
        </mxCell>
        <UserObject label="" lucidchartObjectId="co-sefwU3Ig." id="eYaGFQHEvG416IIvsmWr-173">
          <mxCell style="html=1;jettySize=18;whiteSpace=wrap;fontSize=13;strokeColor=#5E5E5E;strokeWidth=1.5;rounded=1;arcSize=12;edgeStyle=orthogonalEdgeStyle;curved=1;startArrow=none;;endArrow=block;endFill=1;;exitX=0.5;exitY=1.015;exitPerimeter=0;entryX=0.793;entryY=-0.019;entryPerimeter=0;" parent="1" source="eYaGFQHEvG416IIvsmWr-168" target="eYaGFQHEvG416IIvsmWr-172" edge="1">
            <mxGeometry width="100" height="100" relative="1" as="geometry">
              <Array as="points" />
            </mxGeometry>
          </mxCell>
        </UserObject>
        <mxCell id="eYaGFQHEvG416IIvsmWr-174" value="press&amp;nbsp;&quot;Print Receipt&quot;&lt;br&gt;printRecipt()/ return Receipt&lt;br&gt;printer(reciptContent)/ &lt;br&gt;returnReceipt&lt;br&gt;generateReceiptContent()/return content" style="text;html=1;resizable=0;labelBackgroundColor=#ffffff;align=left;verticalAlign=middle;fontStyle=1;fontColor=#333333;;fontSize=13.3;" parent="eYaGFQHEvG416IIvsmWr-173" vertex="1">
          <mxGeometry x="-0.11910651234292291" relative="1" as="geometry">
            <mxPoint x="-23" y="-80" as="offset" />
          </mxGeometry>
        </mxCell>
        <UserObject label="" lucidchartObjectId="dp-sHB0Vgp7v" id="eYaGFQHEvG416IIvsmWr-177">
          <mxCell style="html=1;jettySize=18;whiteSpace=wrap;fontSize=13;strokeColor=#5E5E5E;strokeWidth=1.5;rounded=1;arcSize=12;edgeStyle=orthogonalEdgeStyle;curved=1;startArrow=none;;endArrow=block;endFill=1;;exitX=0.5;exitY=1.019;exitPerimeter=0;entryX=-0.009;entryY=0.5;entryPerimeter=0;" parent="1" source="eYaGFQHEvG416IIvsmWr-165" target="eYaGFQHEvG416IIvsmWr-172" edge="1">
            <mxGeometry width="100" height="100" relative="1" as="geometry">
              <Array as="points">
                <mxPoint x="585" y="1699.79" />
              </Array>
            </mxGeometry>
          </mxCell>
        </UserObject>
        <mxCell id="eYaGFQHEvG416IIvsmWr-178" value="press&amp;nbsp;&quot;Print Receipt&quot;&lt;br&gt;printRecipt()/ return Receipt&lt;br&gt;printer(reciptContent)/ &lt;br&gt;returnReceipt&lt;br&gt;generateReceiptContent()/return content" style="text;html=1;resizable=0;labelBackgroundColor=#ffffff;align=left;verticalAlign=middle;fontStyle=1;fontColor=#333333;;fontSize=13.3;" parent="eYaGFQHEvG416IIvsmWr-177" vertex="1">
          <mxGeometry x="-0.1202136866582939" relative="1" as="geometry">
            <mxPoint x="-153" y="20" as="offset" />
          </mxGeometry>
        </mxCell>
        <UserObject label="" lucidchartObjectId="Cp-swefDaKdZ" id="eYaGFQHEvG416IIvsmWr-179">
          <mxCell style="html=1;jettySize=18;whiteSpace=wrap;fontSize=13;strokeColor=#5E5E5E;strokeWidth=1.5;rounded=1;arcSize=12;edgeStyle=orthogonalEdgeStyle;startArrow=none;;endArrow=block;endFill=1;;exitX=1;exitY=1;entryX=-0.038;entryY=0.5;entryPerimeter=0;exitDx=0;exitDy=0;" parent="1" source="eYaGFQHEvG416IIvsmWr-172" target="eYaGFQHEvG416IIvsmWr-180" edge="1">
            <mxGeometry width="100" height="100" relative="1" as="geometry">
              <Array as="points">
                <mxPoint x="1005" y="1759.79" />
              </Array>
            </mxGeometry>
          </mxCell>
        </UserObject>
        <UserObject label="" lucidchartObjectId="Ep-s0xgQ9My4" id="eYaGFQHEvG416IIvsmWr-180">
          <mxCell style="html=1;overflow=block;blockSpacing=1;whiteSpace=wrap;shape=mxgraph.bpmn.shape;outline=end;symbol=terminate;strokeColor=#000000;fillColor=#ffffff;whiteSpace=wrap;fontSize=13;spacing=0;rounded=1;absoluteArcSize=1;arcSize=9;strokeWidth=2.3;" parent="1" vertex="1">
            <mxGeometry x="1080" y="1744.79" width="30" height="30" as="geometry" />
          </mxCell>
        </UserObject>
        <mxCell id="eYaGFQHEvG416IIvsmWr-181" value="" style="curved=1;endArrow=classic;html=1;entryX=0;entryY=0.5;entryDx=0;entryDy=0;" parent="1" source="eYaGFQHEvG416IIvsmWr-154" target="eYaGFQHEvG416IIvsmWr-156" edge="1">
          <mxGeometry width="50" height="50" relative="1" as="geometry">
            <mxPoint x="570" y="969.79" as="sourcePoint" />
            <mxPoint x="620" y="919.79" as="targetPoint" />
            <Array as="points">
              <mxPoint x="580" y="949.79" />
            </Array>
          </mxGeometry>
        </mxCell>
        <mxCell id="eYaGFQHEvG416IIvsmWr-183" value="&lt;font color=&quot;#333333&quot;&gt;&lt;b style=&quot;font-size: 13px&quot;&gt;processCardPayment(cardData, amount)[&lt;/b&gt;&lt;b style=&quot;font-size: 13px&quot;&gt;cardIssuer != null][&lt;/b&gt;&lt;span style=&quot;font-size: 13px&quot;&gt;&lt;b&gt;holdNumber != -1]/ return false&lt;br&gt;&lt;/b&gt;&lt;/span&gt;&lt;b style=&quot;font-size: 13px&quot;&gt;handleCardPayment(CardData cardData)&lt;br&gt;&lt;/b&gt;&lt;span style=&quot;font-size: 13px&quot;&gt;&lt;b&gt;cardDataRead(reader, data)&lt;/b&gt;&lt;/span&gt;&lt;br&gt;&lt;/font&gt;" style="text;html=1;strokeColor=none;fillColor=none;align=left;verticalAlign=middle;whiteSpace=wrap;rounded=0;" parent="1" vertex="1">
          <mxGeometry x="610" y="930" width="442" height="20" as="geometry" />
        </mxCell>
        <mxCell id="eYaGFQHEvG416IIvsmWr-184" value="&lt;span style=&quot;color: rgb(51 , 51 , 51) ; font-size: 13px ; font-weight: 700 ; background-color: rgb(255 , 255 , 255)&quot;&gt;validBanknoteDetected(validator, currency, value)&amp;nbsp;&lt;/span&gt;&lt;span style=&quot;background-color: rgb(255 , 255 , 255)&quot;&gt;&lt;font color=&quot;#333333&quot;&gt;&lt;span style=&quot;font-size: 13px&quot;&gt;&lt;b&gt;/ update balance&lt;/b&gt;&lt;/span&gt;&lt;/font&gt;&lt;br&gt;&lt;/span&gt;" style="text;html=1;strokeColor=none;fillColor=none;align=left;verticalAlign=middle;whiteSpace=wrap;rounded=0;" parent="1" vertex="1">
          <mxGeometry x="542" y="1069.79" width="236" height="20" as="geometry" />
        </mxCell>
        <mxCell id="eYaGFQHEvG416IIvsmWr-193" value="&lt;span style=&quot;color: rgb(51 , 51 , 51)&quot;&gt;&lt;b&gt;checkConform(scale, item)&lt;/b&gt;&lt;/span&gt;" style="text;html=1;strokeColor=none;fillColor=none;align=center;verticalAlign=middle;whiteSpace=wrap;rounded=0;fontSize=13;rotation=90;" parent="1" vertex="1">
          <mxGeometry x="1496" y="510" width="180" height="20" as="geometry" />
        </mxCell>
        <mxCell id="3pxynoa2fiVpkAcEUHBI-1" value="&lt;font style=&quot;font-size: 13px&quot;&gt;&lt;b&gt;barcodeScanned(barcodeScanner, barcode)&lt;/b&gt;&lt;/font&gt;" style="text;html=1;strokeColor=none;fillColor=none;align=left;verticalAlign=middle;whiteSpace=wrap;rounded=0;fontSize=13;" parent="1" vertex="1">
          <mxGeometry x="700" y="280" width="548" height="20" as="geometry" />
        </mxCell>
        <UserObject label="" lucidchartObjectId="EiZstEM-YDVH" id="3pxynoa2fiVpkAcEUHBI-10">
          <mxCell style="html=1;jettySize=18;whiteSpace=wrap;fontSize=13;strokeColor=#5E5E5E;strokeWidth=1.5;rounded=1;arcSize=12;edgeStyle=orthogonalEdgeStyle;curved=1;startArrow=none;;endArrow=block;endFill=1;;entryX=0.5;entryY=-0.015;entryPerimeter=0;" parent="1" target="3pxynoa2fiVpkAcEUHBI-12" edge="1">
            <mxGeometry width="100" height="100" relative="1" as="geometry">
              <Array as="points" />
              <mxPoint x="760" y="419" as="sourcePoint" />
            </mxGeometry>
          </mxCell>
        </UserObject>
        <mxCell id="3pxynoa2fiVpkAcEUHBI-11" value="isOwnBagPlaced(bag)[bag == &quot;own bag&quot;]/ return true" style="text;html=1;resizable=0;labelBackgroundColor=#ffffff;align=center;verticalAlign=middle;fontStyle=1;fontColor=#333333;;fontSize=13.3;" parent="3pxynoa2fiVpkAcEUHBI-10" vertex="1">
          <mxGeometry relative="1" as="geometry">
            <mxPoint x="-22" y="41" as="offset" />
          </mxGeometry>
        </mxCell>
        <UserObject label="" lucidchartObjectId="FmZs8cvscbzb" id="3pxynoa2fiVpkAcEUHBI-14">
          <mxCell style="html=1;jettySize=18;whiteSpace=wrap;fontSize=13;strokeColor=#5E5E5E;strokeWidth=1.5;rounded=1;arcSize=12;edgeStyle=orthogonalEdgeStyle;curved=1;startArrow=none;;endArrow=block;endFill=1;;exitX=1.009;exitY=0.5;exitPerimeter=0;entryX=0.25;entryY=0;entryDx=0;entryDy=0;" parent="1" target="3pxynoa2fiVpkAcEUHBI-63" edge="1">
            <mxGeometry width="100" height="100" relative="1" as="geometry">
              <Array as="points" />
              <mxPoint x="761.0799999999999" y="388.0000000000001" as="sourcePoint" />
            </mxGeometry>
          </mxCell>
        </UserObject>
        <mxCell id="3pxynoa2fiVpkAcEUHBI-15" value="isOwnBagPlaced(bag)[bag == &quot;own bag&quot;]/ return true" style="text;html=1;resizable=0;labelBackgroundColor=#ffffff;align=center;verticalAlign=middle;fontStyle=1;fontColor=#333333;;fontSize=13.3;" parent="3pxynoa2fiVpkAcEUHBI-14" vertex="1">
          <mxGeometry x="-0.39568610455667175" relative="1" as="geometry">
            <mxPoint x="163" y="-158" as="offset" />
          </mxGeometry>
        </mxCell>
        <mxCell id="3pxynoa2fiVpkAcEUHBI-66" value="&lt;b&gt;enter_number_of_plastic_bags(number_of_bags_used)&lt;/b&gt;" style="edgeLabel;html=1;align=center;verticalAlign=middle;resizable=0;points=[];fontSize=13;" parent="3pxynoa2fiVpkAcEUHBI-14" vertex="1" connectable="0">
          <mxGeometry x="-0.1852" y="2" relative="1" as="geometry">
            <mxPoint x="15" y="-16" as="offset" />
          </mxGeometry>
        </mxCell>
        <mxCell id="3pxynoa2fiVpkAcEUHBI-22" style="edgeStyle=orthogonalEdgeStyle;curved=1;rounded=0;orthogonalLoop=1;jettySize=auto;html=1;fontSize=13;entryX=0.877;entryY=-0.017;entryDx=0;entryDy=0;entryPerimeter=0;exitX=0.003;exitY=0.688;exitDx=0;exitDy=0;exitPerimeter=0;" parent="1" source="3pxynoa2fiVpkAcEUHBI-13" edge="1">
          <mxGeometry relative="1" as="geometry">
            <mxPoint x="1149.83" y="621.66" as="sourcePoint" />
            <mxPoint x="495.0699999999998" y="905.43" as="targetPoint" />
            <Array as="points">
              <mxPoint x="1196" y="725" />
              <mxPoint x="1196" y="722" />
              <mxPoint x="495" y="722" />
            </Array>
          </mxGeometry>
        </mxCell>
        <mxCell id="3pxynoa2fiVpkAcEUHBI-29" value="&lt;b&gt;toPayment()&lt;/b&gt;" style="edgeLabel;html=1;align=center;verticalAlign=middle;resizable=0;points=[];fontSize=13;" parent="3pxynoa2fiVpkAcEUHBI-22" vertex="1" connectable="0">
          <mxGeometry x="0.6144" y="70" relative="1" as="geometry">
            <mxPoint x="487" y="2" as="offset" />
          </mxGeometry>
        </mxCell>
        <mxCell id="3pxynoa2fiVpkAcEUHBI-34" style="edgeStyle=orthogonalEdgeStyle;curved=1;rounded=0;orthogonalLoop=1;jettySize=auto;html=1;exitX=0.5;exitY=1;exitDx=0;exitDy=0;entryX=0;entryY=0.75;entryDx=0;entryDy=0;fontSize=13;" parent="1" source="3pxynoa2fiVpkAcEUHBI-24" target="3pxynoa2fiVpkAcEUHBI-27" edge="1">
          <mxGeometry relative="1" as="geometry" />
        </mxCell>
        <mxCell id="3pxynoa2fiVpkAcEUHBI-35" value="&lt;b&gt;toPayment()&lt;/b&gt;" style="edgeLabel;html=1;align=center;verticalAlign=middle;resizable=0;points=[];fontSize=13;" parent="3pxynoa2fiVpkAcEUHBI-34" vertex="1" connectable="0">
          <mxGeometry x="-0.6276" y="16" relative="1" as="geometry">
            <mxPoint x="44" y="13" as="offset" />
          </mxGeometry>
        </mxCell>
        <mxCell id="3pxynoa2fiVpkAcEUHBI-24" value="&amp;nbsp;Remove items" style="rounded=1;whiteSpace=wrap;html=1;fontSize=13;strokeWidth=2;align=center;" parent="1" vertex="1">
          <mxGeometry x="20" y="420" width="120" height="60" as="geometry" />
        </mxCell>
        <mxCell id="3pxynoa2fiVpkAcEUHBI-25" value="&lt;div style=&quot;text-align: left&quot;&gt;&lt;b&gt;RemoveItem()/&lt;/b&gt;&lt;/div&gt;&lt;b&gt;&lt;div style=&quot;text-align: left&quot;&gt;&lt;b&gt;print &quot;Enter the barcode of the item to be removed: &quot;,&lt;/b&gt;&lt;/div&gt;&lt;/b&gt;&lt;b&gt;&lt;div style=&quot;text-align: left&quot;&gt;&lt;b&gt;&quot;Enter the PLU code of the item to be removed: &quot;,&amp;nbsp;&lt;/b&gt;&lt;/div&gt;&lt;/b&gt;&lt;div style=&quot;text-align: left&quot;&gt;&lt;span&gt;&quot;&lt;/span&gt;&lt;b&gt;Submit&lt;/b&gt;&lt;span&gt;&quot;&lt;/span&gt;&lt;/div&gt;" style="text;html=1;align=center;verticalAlign=middle;resizable=0;points=[];autosize=1;strokeColor=none;fontSize=13;" parent="1" vertex="1">
          <mxGeometry x="180" y="210" width="340" height="70" as="geometry" />
        </mxCell>
        <mxCell id="3pxynoa2fiVpkAcEUHBI-27" value="make a payment" style="text;html=1;strokeColor=none;fillColor=none;align=center;verticalAlign=middle;whiteSpace=wrap;rounded=0;fontSize=13;" parent="1" vertex="1">
          <mxGeometry x="390" y="924.79" width="127" height="20" as="geometry" />
        </mxCell>
        <mxCell id="3pxynoa2fiVpkAcEUHBI-30" style="edgeStyle=orthogonalEdgeStyle;rounded=0;orthogonalLoop=1;jettySize=auto;html=1;exitX=0.25;exitY=1;exitDx=0;exitDy=0;fontSize=13;curved=1;entryX=0;entryY=0;entryDx=0;entryDy=0;" parent="1" source="3pxynoa2fiVpkAcEUHBI-16" target="3pxynoa2fiVpkAcEUHBI-27" edge="1">
          <mxGeometry relative="1" as="geometry">
            <mxPoint x="440" y="790" as="targetPoint" />
            <Array as="points">
              <mxPoint x="304" y="925" />
            </Array>
          </mxGeometry>
        </mxCell>
        <mxCell id="3pxynoa2fiVpkAcEUHBI-31" value="&lt;b&gt;toPayment()&lt;/b&gt;" style="edgeLabel;html=1;align=center;verticalAlign=middle;resizable=0;points=[];fontSize=13;" parent="3pxynoa2fiVpkAcEUHBI-30" vertex="1" connectable="0">
          <mxGeometry x="0.0985" y="7" relative="1" as="geometry">
            <mxPoint x="-17" y="-85" as="offset" />
          </mxGeometry>
        </mxCell>
        <mxCell id="3pxynoa2fiVpkAcEUHBI-32" style="edgeStyle=orthogonalEdgeStyle;curved=1;rounded=0;orthogonalLoop=1;jettySize=auto;html=1;exitX=0.038;exitY=0.943;exitDx=0;exitDy=0;entryX=0.5;entryY=0;entryDx=0;entryDy=0;fontSize=13;exitPerimeter=0;" parent="1" source="3pxynoa2fiVpkAcEUHBI-12" target="eYaGFQHEvG416IIvsmWr-154" edge="1">
          <mxGeometry relative="1" as="geometry">
            <Array as="points">
              <mxPoint x="450" y="673" />
            </Array>
          </mxGeometry>
        </mxCell>
        <mxCell id="3pxynoa2fiVpkAcEUHBI-33" value="&lt;b&gt;toPayment()&lt;/b&gt;" style="edgeLabel;html=1;align=center;verticalAlign=middle;resizable=0;points=[];fontSize=13;" parent="3pxynoa2fiVpkAcEUHBI-32" vertex="1" connectable="0">
          <mxGeometry x="0.4023" y="12" relative="1" as="geometry">
            <mxPoint x="68" y="22" as="offset" />
          </mxGeometry>
        </mxCell>
        <mxCell id="3pxynoa2fiVpkAcEUHBI-40" value="use membership card" style="rounded=1;whiteSpace=wrap;html=1;fontSize=13;strokeWidth=2;align=center;" parent="1" vertex="1">
          <mxGeometry x="1115" y="859.79" width="120" height="60" as="geometry" />
        </mxCell>
        <mxCell id="3pxynoa2fiVpkAcEUHBI-44" value="use gift card" style="rounded=1;whiteSpace=wrap;html=1;fontSize=13;strokeWidth=2;align=center;" parent="1" vertex="1">
          <mxGeometry x="1150" y="1009.79" width="120" height="60" as="geometry" />
        </mxCell>
        <mxCell id="3pxynoa2fiVpkAcEUHBI-46" value="&lt;b&gt;giftcardPayment&lt;/b&gt;&lt;br&gt;&lt;b&gt;(giftcardNumber)&lt;/b&gt;&lt;br&gt;&lt;b&gt;press &quot;Pay by giftCard&quot;&lt;/b&gt;" style="text;html=1;strokeColor=none;fillColor=none;align=left;verticalAlign=middle;whiteSpace=wrap;rounded=0;fontSize=13;" parent="1" vertex="1">
          <mxGeometry x="1000" y="1009.79" width="230" height="20" as="geometry" />
        </mxCell>
        <mxCell id="3pxynoa2fiVpkAcEUHBI-47" style="edgeStyle=orthogonalEdgeStyle;curved=1;rounded=0;orthogonalLoop=1;jettySize=auto;html=1;exitX=0.5;exitY=1;exitDx=0;exitDy=0;fontSize=13;" parent="1" source="3pxynoa2fiVpkAcEUHBI-46" target="3pxynoa2fiVpkAcEUHBI-46" edge="1">
          <mxGeometry relative="1" as="geometry" />
        </mxCell>
        <mxCell id="3pxynoa2fiVpkAcEUHBI-55" value="pay by cash" style="rounded=1;whiteSpace=wrap;html=1;fontSize=13;strokeWidth=2;align=center;" parent="1" vertex="1">
          <mxGeometry x="270" y="1039.79" width="120" height="60" as="geometry" />
        </mxCell>
        <mxCell id="3pxynoa2fiVpkAcEUHBI-73" style="edgeStyle=orthogonalEdgeStyle;curved=1;rounded=0;orthogonalLoop=1;jettySize=auto;html=1;exitX=0.539;exitY=1.049;exitDx=0;exitDy=0;entryX=1;entryY=0.25;entryDx=0;entryDy=0;fontSize=13;exitPerimeter=0;" parent="1" source="3pxynoa2fiVpkAcEUHBI-58" target="eYaGFQHEvG416IIvsmWr-154" edge="1">
          <mxGeometry relative="1" as="geometry">
            <Array as="points">
              <mxPoint x="704" y="920" />
            </Array>
          </mxGeometry>
        </mxCell>
        <mxCell id="3pxynoa2fiVpkAcEUHBI-74" value="&lt;b&gt;toPayment()&lt;/b&gt;" style="edgeLabel;html=1;align=center;verticalAlign=middle;resizable=0;points=[];fontSize=13;" parent="3pxynoa2fiVpkAcEUHBI-73" vertex="1" connectable="0">
          <mxGeometry x="-0.4128" y="-35" relative="1" as="geometry">
            <mxPoint x="60" y="-21" as="offset" />
          </mxGeometry>
        </mxCell>
        <mxCell id="3pxynoa2fiVpkAcEUHBI-53" style="edgeStyle=orthogonalEdgeStyle;curved=1;rounded=0;orthogonalLoop=1;jettySize=auto;html=1;fontSize=13;exitX=0.116;exitY=0.014;exitDx=0;exitDy=0;exitPerimeter=0;" parent="1" source="eYaGFQHEvG416IIvsmWr-154" edge="1">
          <mxGeometry relative="1" as="geometry">
            <mxPoint x="469.74" y="904.7899999999996" as="sourcePoint" />
            <mxPoint x="660" y="421" as="targetPoint" />
            <Array as="points">
              <mxPoint x="404" y="560" />
              <mxPoint x="660" y="560" />
              <mxPoint x="660" y="421" />
            </Array>
          </mxGeometry>
        </mxCell>
        <mxCell id="3pxynoa2fiVpkAcEUHBI-54" value="&lt;b&gt;press &quot;Return to adding items&quot;&lt;/b&gt;&lt;br&gt;&lt;div style=&quot;text-align: left&quot;&gt;&lt;b&gt;returnToAddingItems()&lt;/b&gt;&lt;/div&gt;" style="edgeLabel;html=1;align=center;verticalAlign=middle;resizable=0;points=[];fontSize=13;" parent="3pxynoa2fiVpkAcEUHBI-53" vertex="1" connectable="0">
          <mxGeometry x="0.8925" y="2" relative="1" as="geometry">
            <mxPoint x="-233" y="199" as="offset" />
          </mxGeometry>
        </mxCell>
        <mxCell id="3pxynoa2fiVpkAcEUHBI-84" style="edgeStyle=orthogonalEdgeStyle;curved=1;rounded=0;orthogonalLoop=1;jettySize=auto;html=1;exitX=0.25;exitY=1;exitDx=0;exitDy=0;fontSize=13;" parent="1" source="3pxynoa2fiVpkAcEUHBI-80" target="eYaGFQHEvG416IIvsmWr-154" edge="1">
          <mxGeometry relative="1" as="geometry">
            <Array as="points">
              <mxPoint x="1480" y="653" />
              <mxPoint x="1480" y="779" />
              <mxPoint x="510" y="779" />
            </Array>
          </mxGeometry>
        </mxCell>
        <mxCell id="3pxynoa2fiVpkAcEUHBI-80" value="&lt;div style=&quot;display: flex; justify-content: center; text-align: center; align-items: baseline; font-size: 0; line-height: 1.25;margin-top: -2px;&quot;&gt;&lt;span&gt;&lt;span style=&quot;font-size:16.7px;color:#333333;&quot;&gt;weight item&lt;/span&gt;&lt;/span&gt;&lt;/div&gt;" style="rounded=1;arcSize=20;whiteSpace=wrap;overflow=block;blockSpacing=1;html=1;fontSize=13;spacing=0;strokeColor=#5e5e5e;strokeOpacity=100;strokeWidth=2.3;" parent="1" vertex="1">
          <mxGeometry x="1445" y="593" width="120" height="60" as="geometry" />
        </mxCell>
        <mxCell id="3pxynoa2fiVpkAcEUHBI-81" value="Weight" style="text;html=1;strokeColor=none;fillColor=none;align=center;verticalAlign=middle;whiteSpace=wrap;rounded=0;" parent="1" vertex="1">
          <mxGeometry x="1405" y="260" width="40" height="20" as="geometry" />
        </mxCell>
        <UserObject label="" lucidchartObjectId="O6ZsHN.ywYgH" id="3pxynoa2fiVpkAcEUHBI-82">
          <mxCell style="html=1;jettySize=18;whiteSpace=wrap;fontSize=13;strokeColor=#5E5E5E;strokeWidth=1.5;rounded=1;arcSize=12;edgeStyle=orthogonalEdgeStyle;startArrow=none;;endArrow=block;endFill=1;;exitX=0.5;exitY=1.019;exitPerimeter=0;" parent="1" edge="1">
            <mxGeometry width="100" height="100" relative="1" as="geometry">
              <Array as="points" />
              <mxPoint x="1500" y="436.1400000000001" as="sourcePoint" />
              <mxPoint x="1500" y="590" as="targetPoint" />
            </mxGeometry>
          </mxCell>
        </UserObject>
        <mxCell id="3pxynoa2fiVpkAcEUHBI-83" value="&lt;div style=&quot;display: flex ; justify-content: center ; text-align: center ; align-items: baseline ; line-height: 1.25 ; margin-top: -2px&quot;&gt;&lt;span style=&quot;font-size: 13px ; color: rgb(51 , 51 , 51) ; font-weight: bold&quot;&gt; &lt;/span&gt;&lt;span style=&quot;color: rgb(51 , 51 , 51)&quot;&gt;&lt;b&gt;weightChanged(scale, weightInGrams)[thisWeight - lastWeight == itemWeight]&lt;font style=&quot;font-size: 13px&quot;&gt;&lt;br&gt;&lt;/font&gt;&lt;/b&gt;&lt;/span&gt;&lt;span style=&quot;color: rgb(51 , 51 , 51) ; background-color: rgb(248 , 249 , 250)&quot;&gt;&lt;font style=&quot;font-size: 13px&quot;&gt;&lt;b&gt;&lt;br&gt;&lt;/b&gt;&lt;/font&gt;&lt;/span&gt;&lt;span style=&quot;color: rgb(51 , 51 , 51) ; background-color: rgb(248 , 249 , 250)&quot;&gt;&lt;font style=&quot;font-size: 13px&quot;&gt;&lt;b&gt;&lt;br&gt;&lt;/b&gt;&lt;/font&gt;&lt;/span&gt;&lt;span style=&quot;color: rgb(51 , 51 , 51) ; background-color: rgb(248 , 249 , 250)&quot;&gt;&lt;br&gt;&lt;/span&gt;&lt;/div&gt;" style="text;html=1;resizable=0;labelBackgroundColor=#ffffff;align=center;verticalAlign=middle;fontSize=13;rotation=90;" parent="3pxynoa2fiVpkAcEUHBI-82" vertex="1">
          <mxGeometry x="-0.1721825026653232" relative="1" as="geometry">
            <mxPoint x="120" y="11" as="offset" />
          </mxGeometry>
        </mxCell>
        <mxCell id="3pxynoa2fiVpkAcEUHBI-85" value="&lt;b&gt;toPayment()&lt;/b&gt;" style="text;html=1;align=center;verticalAlign=middle;resizable=0;points=[];autosize=1;strokeColor=none;fontSize=13;rotation=0;" parent="1" vertex="1">
          <mxGeometry x="1405" y="760" width="90" height="20" as="geometry" />
        </mxCell>
      </root>
    </mxGraphModel>
  </diagram>
</mxfile>
